<svg xmlns="http://www.w3.org/2000/svg" viewBox="0 0 648 89.25">
  <defs>
    <style>
      .cls-1 {
        fill: #fafafa;
      }

      .cls-2 {
        fill: #fac236;
      }
    </style>
  </defs>
  <g id="Logo_Full_Light_Transparent_BG" data-name="Logo_Full_Light Transparent BG">
    <g id="Logo_Letters">
      <g>
        <path class="cls-1" d="M22.37,32.29a34.59,34.59,0,0,1,26.38,57,44.59,44.59,0,0,0,9.51-2A40.35,40.35,0,0,0,25.47,23.42,40.17,40.17,0,0,0,2,31,44.68,44.68,0,0,0,0,40.51,34.45,34.45,0,0,1,22.37,32.29Z"/>
        <circle class="cls-1" cx="22.18" cy="67.07" r="9.6" transform="translate(-14.82 6.89) rotate(-13.28)"/>
        <path class="cls-1" d="M49.87,65.4a26,26,0,0,0-49-12.12,44.24,44.24,0,0,0,2.78,9A19.08,19.08,0,1,1,27,85.62a44.79,44.79,0,0,0,9,2.79A26,26,0,0,0,49.87,65.4Z"/>
      </g>
      <path class="cls-2" d="M89.25,44.63A44.63,44.63,0,0,0,8.91,17.87,48.88,48.88,0,0,1,71.38,80.35,44.56,44.56,0,0,0,89.25,44.63Z"/>
      <path class="cls-1" d="M128.8,75.17h17.25q6.51,0,10.18-3.44t3.66-9.91q0-6.68-4.16-10.33t-11.59-3.65H128.8Zm0-59.76V42h12.13q8.73,0,12.84-4a13.44,13.44,0,0,0,4.11-10.11,11.55,11.55,0,0,0-4-8.9q-4-3.6-11.78-3.61Zm-6.22-5.83h18.86q10.23,0,16.59,4.93t6.37,13.62A17.64,17.64,0,0,1,161,39a14.4,14.4,0,0,1-8.67,5.67,16,16,0,0,1,9.88,5.19q4.16,4.45,4.16,12.18,0,8.59-5.26,13.78T146.05,81H122.58Z"/>
      <polygon class="cls-1" points="186.47 9.58 186.47 81 222.48 81 222.48 74.96 192.69 74.96 192.69 9.58 186.47 9.58"/>
      <rect class="cls-1" x="242.04" y="9.58" width="6.22" height="71.42"/>
      <path class="cls-1" d="M272.33,81V9.58h8.53l17.25,30.2,19.06,33.48q-.21-11-.21-33.37V9.58h6.22V81h-8.52L297.51,51,278.35,17.32q.19,11.45.2,33.48V81Z"/>
      <path class="cls-1" d="M353,75h13.54a28.13,28.13,0,0,0,12.24-2.54,21.66,21.66,0,0,0,8.43-6.89A32.06,32.06,0,0,0,391.84,56a38.47,38.47,0,0,0,1.55-11.12,29.87,29.87,0,0,0-7.67-20.72q-7.67-8.52-19.71-8.52H353ZM346.75,9.58H366q14.85,0,24.38,9.75t9.52,25.54a43.41,43.41,0,0,1-3.51,17.64,30.7,30.7,0,0,1-11.28,13.25Q377.35,81,366.51,81H346.75Z"/>
      <path class="cls-1" d="M439.57,81a26.14,26.14,0,0,1-25-17.76l10.83-3.94A19.83,19.83,0,0,0,431.8,67,14.76,14.76,0,0,0,440.57,70,11.15,11.15,0,0,0,448,67.58a8.38,8.38,0,0,0,2.8-6.8q0-3.75-3.81-6.66a51.55,51.55,0,0,0-10.63-5.87q-4.31-1.87-6.92-3.25a44.63,44.63,0,0,1-5.87-3.85,15.82,15.82,0,0,1-4.86-5.82,17.15,17.15,0,0,1-1.61-7.5,16.65,16.65,0,0,1,6-13q6-5.28,15.7-5.28a22.54,22.54,0,0,1,13.49,4.15,19.67,19.67,0,0,1,7.67,10.55L449.2,27.83q-3.61-7.2-11.13-7.2a10,10,0,0,0-6.42,2A6.49,6.49,0,0,0,429.14,28a5.54,5.54,0,0,0,.2,1.53,3.92,3.92,0,0,0,.7,1.38c.34.43.65.82.95,1.18a6.48,6.48,0,0,0,1.41,1.19c.63.43,1.17.77,1.6,1s1.09.61,2,1,1.54.74,2,.94,1.23.54,2.3,1,1.84.84,2.31,1a73.74,73.74,0,0,1,7,3.5,54.29,54.29,0,0,1,6.22,4.29A18.39,18.39,0,0,1,461,52.49a17.85,17.85,0,0,1,1.8,8q0,9.48-6.77,15A25.25,25.25,0,0,1,439.57,81"/>
      <polygon class="cls-1" points="479.89 9.58 479.89 20.3 494.54 20.3 494.54 70.29 479.89 70.29 479.89 81 521.22 81 521.22 70.29 506.47 70.29 506.47 20.3 521.22 20.3 521.22 9.58 479.89 9.58"/>
      <path class="cls-1" d="M550.94,69.66h6.52a18.32,18.32,0,0,0,9-2.13,15.39,15.39,0,0,0,6-5.73,28.67,28.67,0,0,0,3.11-7.69,36.41,36.41,0,0,0,1-8.56,31.11,31.11,0,0,0-4.51-17q-4.51-7.08-13.44-7.09h-7.63ZM539,81V10.1h17.65a35.61,35.61,0,0,1,12.34,2,27.47,27.47,0,0,1,9.17,5.37,29.48,29.48,0,0,1,6.12,8,37.21,37.21,0,0,1,3.56,9.62,49.68,49.68,0,0,1,.1,20.41,37.53,37.53,0,0,1-3.41,9.58,30.17,30.17,0,0,1-6.06,8.2,27.15,27.15,0,0,1-9.38,5.62A36.55,36.55,0,0,1,556.26,81Z"/>
      <polygon class="cls-1" points="600.86 9.58 600.86 81 648 81 648 69.47 612.79 69.47 612.79 49.88 634.36 49.88 634.36 38.35 612.79 38.35 612.79 21.11 645.89 21.11 645.89 9.58 600.86 9.58"/>
    </g>
  </g>
</svg>
